<svg xmlns="http://www.w3.org/2000/svg" viewBox="0 0 100 100">
  <defs>
    <linearGradient id="chowk-icon-primary" x1="0%" y1="0%" x2="100%" y2="100%">
      <stop offset="0%" style="stop-color:#E07A5F"/>
      <stop offset="100%" style="stop-color:#C45C3A"/>
    </linearGradient>
    <linearGradient id="chowk-icon-secondary" x1="0%" y1="0%" x2="100%" y2="100%">
      <stop offset="0%" style="stop-color:#F6AE8C"/>
      <stop offset="100%" style="stop-color:#E89A6E"/>
    </linearGradient>
  </defs>
  
  <!-- Rounded Petals Icon -->
  <!-- Cardinal petal shapes -->
  <path d="M50 6 Q60 20 54 36 L50 32 L46 36 Q40 20 50 6" fill="url(#chowk-icon-primary)"/>
  <path d="M94 50 Q80 60 64 54 L68 50 L64 46 Q80 40 94 50" fill="url(#chowk-icon-primary)"/>
  <path d="M50 94 Q40 80 46 64 L50 68 L54 64 Q60 80 50 94" fill="url(#chowk-icon-primary)"/>
  <path d="M6 50 Q20 40 36 46 L32 50 L36 54 Q20 60 6 50" fill="url(#chowk-icon-primary)"/>
  
  <!-- Diagonal smaller petals -->
  <path d="M80 20 Q72 30 60 38 L58 34 Q66 28 74 18 Q78 16 80 20" fill="url(#chowk-icon-secondary)"/>
  <path d="M80 80 Q72 70 60 62 L58 66 Q66 72 74 82 Q78 84 80 80" fill="url(#chowk-icon-secondary)"/>
  <path d="M20 80 Q28 70 40 62 L42 66 Q34 72 26 82 Q22 84 20 80" fill="url(#chowk-icon-secondary)"/>
  <path d="M20 20 Q28 30 40 38 L42 34 Q34 28 26 18 Q22 16 20 20" fill="url(#chowk-icon-secondary)"/>
  
  <!-- Central circle -->
  <circle cx="50" cy="50" r="12" fill="url(#chowk-icon-primary)"/>
  <circle cx="50" cy="50" r="5" fill="#FFFAF8"/>
</svg>
